<svg xmlns="http://www.w3.org/2000/svg" viewBox="0 0 108 26">
  <path d="M 88.946 20.504 C 88.113 19.084 87.697 17.485 87.697 15.704 C 87.697 13.879 88.113 12.268 88.946 10.87 C 89.778 9.451 90.925 8.346 92.388 7.558 C 93.85 6.746 95.504 6.341 97.349 6.341 C 99.216 6.341 100.869 6.746 102.309 7.558 C 103.772 8.346 104.919 9.451 105.751 10.87 C 106.584 12.268 107 13.879 107 15.704 C 107 17.485 106.584 19.084 105.751 20.504 C 104.919 21.901 103.772 23.006 102.309 23.817 C 100.869 24.606 99.216 25 97.349 25 C 95.504 25 93.85 24.606 92.388 23.817 C 90.925 23.006 89.778 21.901 88.946 20.504 Z M 97.644 20.939 L 98.85 18.281 C 99.071 17.795 99.46 17.405 99.945 17.184 L 102.599 15.976 C 102.886 15.845 102.886 15.436 102.599 15.305 L 99.945 14.097 C 99.46 13.876 99.071 13.486 98.85 13 L 97.644 10.342 C 97.513 10.054 97.105 10.054 96.974 10.342 L 95.768 13 C 95.548 13.486 95.158 13.876 94.673 14.097 L 92.019 15.305 C 91.732 15.436 91.732 15.845 92.019 15.976 L 94.673 17.184 C 95.158 17.405 95.548 17.795 95.768 18.281 L 96.974 20.939 C 97.105 21.227 97.513 21.227 97.644 20.939 Z" fill="rgb(0,0,0)"/>
  <path d="M 79.251 24.662 L 79.251 6.713 L 84.684 6.713 L 84.684 24.662 Z" fill="rgb(0,0,0)"/>
  <path d="M 64.827 24.662 L 57.335 6.713 L 63.308 6.713 L 67.763 19.997 L 66.447 20.166 L 71.036 6.713 L 76.975 6.713 L 69.079 24.662 Z" fill="rgb(0,0,0)"/>
  <path d="M 50.967 24.662 L 50.967 13.642 C 50.967 12.718 50.709 12.042 50.191 11.614 C 49.696 11.163 48.999 10.938 48.099 10.938 C 47.222 10.938 46.434 11.107 45.737 11.445 C 45.062 11.761 44.409 12.29 43.779 13.034 L 40.54 9.89 C 41.62 8.786 42.857 7.918 44.252 7.287 C 45.647 6.656 47.165 6.341 48.808 6.341 C 50.315 6.341 51.62 6.566 52.722 7.017 C 53.825 7.468 54.679 8.155 55.287 9.079 C 55.894 10.003 56.198 11.175 56.198 12.594 L 56.198 24.662 Z M 46.31 25 C 45.185 25 44.162 24.775 43.239 24.324 C 42.34 23.873 41.62 23.253 41.08 22.465 C 40.562 21.653 40.303 20.707 40.303 19.625 C 40.303 18.701 40.472 17.89 40.81 17.192 C 41.147 16.493 41.642 15.918 42.294 15.468 C 42.969 14.994 43.802 14.645 44.792 14.42 C 45.804 14.172 46.974 14.048 48.301 14.048 L 53.734 14.048 L 53.431 17.462 L 48.436 17.462 C 47.964 17.462 47.548 17.507 47.188 17.597 C 46.828 17.665 46.524 17.789 46.277 17.969 C 46.029 18.127 45.838 18.318 45.703 18.544 C 45.59 18.769 45.534 19.039 45.534 19.355 C 45.534 19.693 45.624 19.986 45.804 20.234 C 45.984 20.482 46.22 20.673 46.513 20.808 C 46.828 20.944 47.188 21.011 47.593 21.011 C 48.178 21.011 48.729 20.921 49.246 20.741 C 49.786 20.538 50.259 20.256 50.664 19.896 C 51.091 19.535 51.428 19.118 51.676 18.645 L 52.621 21.079 C 52.148 21.845 51.575 22.521 50.9 23.107 C 50.247 23.693 49.528 24.155 48.74 24.493 C 47.975 24.831 47.165 25 46.31 25 Z" fill="rgb(0,0,0)"/>
  <path d="M 32.697 24.662 L 32.697 13.642 C 32.697 12.718 32.438 12.042 31.921 11.614 C 31.426 11.163 30.728 10.938 29.828 10.938 C 28.951 10.938 28.164 11.107 27.466 11.445 C 26.791 11.761 26.139 12.29 25.509 13.034 L 22.269 9.89 C 23.349 8.786 24.586 7.918 25.981 7.287 C 27.376 6.656 28.895 6.341 30.537 6.341 C 32.044 6.341 33.349 6.566 34.452 7.017 C 35.554 7.468 36.409 8.155 37.016 9.079 C 37.624 10.003 37.928 11.175 37.928 12.594 L 37.928 24.662 Z M 28.04 25 C 26.915 25 25.891 24.775 24.969 24.324 C 24.069 23.873 23.349 23.253 22.809 22.465 C 22.292 21.653 22.033 20.707 22.033 19.625 C 22.033 18.701 22.202 17.89 22.539 17.192 C 22.877 16.493 23.372 15.918 24.024 15.468 C 24.699 14.994 25.531 14.645 26.521 14.42 C 27.534 14.172 28.703 14.048 30.031 14.048 L 35.464 14.048 L 35.16 17.462 L 30.166 17.462 C 29.693 17.462 29.277 17.507 28.917 17.597 C 28.557 17.665 28.253 17.789 28.006 17.969 C 27.759 18.127 27.567 18.318 27.432 18.544 C 27.32 18.769 27.264 19.039 27.264 19.355 C 27.264 19.693 27.354 19.986 27.534 20.234 C 27.714 20.482 27.95 20.673 28.242 20.808 C 28.557 20.944 28.917 21.011 29.322 21.011 C 29.907 21.011 30.458 20.921 30.976 20.741 C 31.516 20.538 31.988 20.256 32.393 19.896 C 32.821 19.535 33.158 19.118 33.406 18.645 L 34.35 21.079 C 33.878 21.845 33.304 22.521 32.629 23.107 C 31.977 23.693 31.257 24.155 30.47 24.493 C 29.705 24.831 28.895 25 28.04 25 Z" fill="rgb(0,0,0)"/>
  <path d="M 5.286 17.732 L 3.801 12.831 L 15.477 1 L 22.328 1 Z M 1 24.662 L 1 1 L 6.771 1 L 6.771 24.662 Z M 16.186 24.662 L 7.446 13.101 L 11.326 9.755 L 22.935 24.662 Z" fill="rgb(0,0,0)"/>
</svg>
